# xmcd
#
# Track frame offsets:
#	150
#	15227
#	32850
#	54264
#	74670
#	94419
#	111504
#	125461
#	142723
#	157377
#
# Disc length: 2260 seconds
# Revision: 0
# Processed by: cddbd v1.5.2PL0 Copyright (c) Steve Scherf et al.
# Submitted via: dBpowerAMP V12.0
#
DISCID=8b08d20a
DTITLE=Paul Faulkner - Brother Paul - Blind Spot
DYEAR=2013
DGENRE=Blues
TTITLE0=Your Sin
TTITLE1=Murder Ballad
TTITLE2=Blind Spot
TTITLE3=Let Them Laugh
TTITLE4=Safe Home Tonight
TTITLE5=Mt. Everest
TTITLE6=You Promised
TTITLE7=Mystery Train
TTITLE8=I'm So Lonesome I Could Cry
TTITLE9=My Own
EXTD=
EXTT0=
EXTT1=
EXTT2=
EXTT3=
EXTT4=
EXTT5=
EXTT6=
EXTT7=
EXTT8=
EXTT9=
PLAYORDER=
